<svg xmlns="http://www.w3.org/2000/svg" xmlns:xlink="http://www.w3.org/1999/xlink" version="1.1" width="256" height="256" viewBox="0 0 256 256" xml:space="preserve">

<defs>
</defs>
<g style="stroke: none; stroke-width: 0; stroke-dasharray: none; stroke-linecap: butt; stroke-linejoin: miter; stroke-miterlimit: 10; fill: none; fill-rule: nonzero; opacity: 1;" transform="translate(1.4065934065934016 1.4065934065934016) scale(2.81 2.81)" >
	<path d="M 41.46 53.642 c -0.003 -0.013 -0.005 -0.026 -0.008 -0.039 c -0.029 -0.107 -0.071 -0.209 -0.122 -0.306 c -0.008 -0.016 -0.016 -0.031 -0.025 -0.047 c -0.054 -0.094 -0.118 -0.181 -0.191 -0.261 c -0.012 -0.013 -0.025 -0.026 -0.038 -0.039 c -0.077 -0.079 -0.162 -0.15 -0.257 -0.211 c -0.005 -0.003 -0.008 -0.008 -0.013 -0.011 c -0.009 -0.005 -0.019 -0.007 -0.027 -0.013 c -0.037 -0.022 -0.073 -0.045 -0.112 -0.064 L 21.403 43.29 c -0.411 -0.2 -0.891 -0.2 -1.302 0 L 0.838 52.652 c -0.039 0.019 -0.075 0.042 -0.111 0.064 c -0.009 0.005 -0.019 0.007 -0.028 0.013 c -0.005 0.003 -0.008 0.008 -0.013 0.011 c -0.094 0.06 -0.179 0.132 -0.256 0.21 c -0.013 0.013 -0.026 0.026 -0.038 0.04 c -0.073 0.08 -0.137 0.167 -0.19 0.261 c -0.009 0.016 -0.017 0.032 -0.026 0.048 c -0.051 0.097 -0.093 0.198 -0.122 0.305 c -0.003 0.013 -0.005 0.026 -0.008 0.039 C 0.017 53.756 0 53.872 0 53.991 v 22.969 c 0 0.57 0.325 1.09 0.838 1.339 l 19.263 9.362 c 0.01 0.005 0.021 0.006 0.031 0.011 c 0.071 0.033 0.146 0.057 0.223 0.079 c 0.026 0.007 0.051 0.018 0.078 0.024 c 0.103 0.022 0.209 0.036 0.318 0.036 c 0.11 0 0.216 -0.013 0.319 -0.036 c 0.026 -0.006 0.051 -0.017 0.077 -0.024 c 0.077 -0.021 0.153 -0.046 0.224 -0.079 c 0.01 -0.005 0.021 -0.006 0.031 -0.011 L 40.666 78.3 c 0.513 -0.249 0.838 -0.769 0.838 -1.339 V 53.991 C 41.504 53.872 41.487 53.755 41.46 53.642 z M 20.752 46.285 l 15.857 7.706 l -15.857 7.706 L 4.896 53.991 L 20.752 46.285 z M 2.978 56.37 l 16.285 7.914 v 19.658 L 2.978 76.028 V 56.37 z M 22.241 83.943 V 64.285 l 16.285 -7.914 v 19.658 L 22.241 83.943 z" style="stroke: none; stroke-width: 1; stroke-dasharray: none; stroke-linecap: butt; stroke-linejoin: miter; stroke-miterlimit: 10; fill: rgb(0,0,0); fill-rule: nonzero; opacity: 1;" transform=" matrix(1 0 0 1 0 0) " stroke-linecap="round" />
	<path d="M 89.955 53.642 c -0.003 -0.013 -0.005 -0.026 -0.008 -0.039 c -0.029 -0.107 -0.071 -0.209 -0.122 -0.306 c -0.008 -0.016 -0.016 -0.031 -0.025 -0.047 c -0.054 -0.094 -0.118 -0.181 -0.191 -0.261 c -0.012 -0.013 -0.025 -0.026 -0.038 -0.039 c -0.077 -0.079 -0.162 -0.15 -0.257 -0.211 c -0.005 -0.003 -0.008 -0.008 -0.013 -0.011 c -0.009 -0.005 -0.019 -0.007 -0.027 -0.013 c -0.037 -0.022 -0.073 -0.045 -0.112 -0.064 L 69.899 43.29 c -0.411 -0.2 -0.891 -0.2 -1.302 0 l -19.263 9.362 c -0.039 0.019 -0.075 0.042 -0.111 0.064 c -0.009 0.005 -0.019 0.007 -0.028 0.013 c -0.005 0.003 -0.008 0.008 -0.013 0.011 c -0.094 0.06 -0.179 0.132 -0.256 0.21 c -0.013 0.013 -0.026 0.026 -0.038 0.04 c -0.073 0.08 -0.137 0.167 -0.19 0.261 c -0.009 0.016 -0.017 0.032 -0.026 0.048 c -0.051 0.097 -0.093 0.198 -0.122 0.305 c -0.003 0.013 -0.005 0.026 -0.008 0.039 c -0.027 0.113 -0.045 0.229 -0.045 0.349 v 22.969 c 0 0.57 0.325 1.09 0.838 1.339 l 19.263 9.362 c 0.01 0.005 0.021 0.006 0.031 0.011 c 0.071 0.033 0.146 0.057 0.223 0.079 c 0.026 0.007 0.051 0.018 0.078 0.024 c 0.103 0.022 0.209 0.036 0.318 0.036 c 0.11 0 0.216 -0.013 0.319 -0.036 c 0.026 -0.006 0.051 -0.017 0.077 -0.024 c 0.077 -0.021 0.153 -0.046 0.224 -0.079 c 0.01 -0.005 0.021 -0.006 0.031 -0.011 L 89.162 78.3 C 89.675 78.051 90 77.531 90 76.961 V 53.991 C 90 53.872 89.983 53.755 89.955 53.642 z M 69.248 46.285 l 15.857 7.706 l -15.857 7.706 l -15.857 -7.706 L 69.248 46.285 z M 51.474 56.37 l 16.285 7.914 v 19.658 l -16.285 -7.914 V 56.37 z M 70.737 83.943 V 64.285 l 16.285 -7.914 v 19.658 L 70.737 83.943 z" style="stroke: none; stroke-width: 1; stroke-dasharray: none; stroke-linecap: butt; stroke-linejoin: miter; stroke-miterlimit: 10; fill: rgb(0,0,0); fill-rule: nonzero; opacity: 1;" transform=" matrix(1 0 0 1 0 0) " stroke-linecap="round" />
	<path d="M 65.708 12.69 c -0.003 -0.013 -0.005 -0.026 -0.008 -0.039 c -0.029 -0.107 -0.071 -0.209 -0.122 -0.306 c -0.008 -0.016 -0.016 -0.031 -0.025 -0.047 c -0.054 -0.094 -0.118 -0.181 -0.191 -0.261 c -0.012 -0.013 -0.025 -0.026 -0.038 -0.039 c -0.077 -0.079 -0.162 -0.15 -0.257 -0.211 c -0.005 -0.003 -0.008 -0.008 -0.013 -0.011 c -0.009 -0.005 -0.019 -0.007 -0.027 -0.013 c -0.037 -0.022 -0.073 -0.045 -0.112 -0.064 L 45.651 2.339 c -0.411 -0.2 -0.891 -0.2 -1.302 0 L 25.086 11.7 c -0.039 0.019 -0.075 0.042 -0.111 0.064 c -0.009 0.005 -0.019 0.007 -0.028 0.013 c -0.005 0.003 -0.008 0.008 -0.013 0.011 c -0.094 0.06 -0.179 0.132 -0.256 0.21 c -0.013 0.013 -0.026 0.026 -0.038 0.04 c -0.073 0.08 -0.137 0.167 -0.19 0.261 c -0.009 0.016 -0.017 0.032 -0.026 0.048 c -0.051 0.097 -0.093 0.198 -0.122 0.305 c -0.003 0.013 -0.005 0.026 -0.008 0.039 c -0.027 0.113 -0.045 0.229 -0.045 0.349 v 22.969 c 0 0.57 0.325 1.09 0.838 1.339 l 19.263 9.362 c 0.01 0.005 0.021 0.006 0.031 0.011 c 0.071 0.033 0.146 0.057 0.223 0.079 c 0.026 0.007 0.051 0.018 0.078 0.024 c 0.103 0.022 0.209 0.036 0.318 0.036 c 0.11 0 0.216 -0.013 0.319 -0.036 c 0.026 -0.006 0.051 -0.017 0.077 -0.024 c 0.077 -0.021 0.153 -0.046 0.224 -0.079 c 0.01 -0.005 0.021 -0.006 0.031 -0.011 l 19.263 -9.362 c 0.513 -0.249 0.838 -0.769 0.838 -1.339 V 13.039 C 65.752 12.92 65.735 12.803 65.708 12.69 z M 45 5.333 l 15.857 7.706 L 45 20.745 l -15.857 -7.706 L 45 5.333 z M 27.226 15.419 l 16.285 7.914 v 19.658 l -16.285 -7.914 V 15.419 z M 46.489 42.991 V 23.333 l 16.285 -7.914 v 19.658 L 46.489 42.991 z" style="stroke: none; stroke-width: 1; stroke-dasharray: none; stroke-linecap: butt; stroke-linejoin: miter; stroke-miterlimit: 10; fill: rgb(0,0,0); fill-rule: nonzero; opacity: 1;" transform=" matrix(1 0 0 1 0 0) " stroke-linecap="round" />
</g>
</svg>